<svg width="20" height="20" viewBox="0 0 20 20" fill="none" xmlns="http://www.w3.org/2000/svg">
<path d="M11.6667 1.66666V4.99999C11.6667 5.44202 11.8423 5.86594 12.1548 6.1785C12.4674 6.49106 12.8913 6.66666 13.3334 6.66666H16.6667" stroke="black" stroke-width="1.66667" stroke-linecap="round" stroke-linejoin="round"/>
<path d="M12.5 15C12.5 14.337 12.2366 13.7011 11.7678 13.2322C11.2989 12.7634 10.663 12.5 10 12.5C9.33696 12.5 8.70107 12.7634 8.23223 13.2322C7.76339 13.7011 7.5 14.337 7.5 15" stroke="black" stroke-width="1.66667" stroke-linecap="round" stroke-linejoin="round"/>
<path d="M12.5 1.66666H4.99998C4.55795 1.66666 4.13403 1.84225 3.82147 2.15481C3.50891 2.46737 3.33331 2.8913 3.33331 3.33332V16.6667C3.33331 17.1087 3.50891 17.5326 3.82147 17.8452C4.13403 18.1577 4.55795 18.3333 4.99998 18.3333H15C15.442 18.3333 15.8659 18.1577 16.1785 17.8452C16.4911 17.5326 16.6666 17.1087 16.6666 16.6667V5.83332L12.5 1.66666Z" stroke="black" stroke-width="1.66667" stroke-linecap="round" stroke-linejoin="round"/>
<path d="M9.99998 12.5C10.9205 12.5 11.6666 11.7538 11.6666 10.8333C11.6666 9.91285 10.9205 9.16666 9.99998 9.16666C9.07951 9.16666 8.33331 9.91285 8.33331 10.8333C8.33331 11.7538 9.07951 12.5 9.99998 12.5Z" stroke="black" stroke-width="1.66667" stroke-linecap="round" stroke-linejoin="round"/>
</svg>
