<svg width="24" height="24" viewBox="0 0 24 24" fill="none" xmlns="http://www.w3.org/2000/svg">
<path d="M15 3H4C3.44772 3 3 3.44772 3 4V9C3 9.55228 3.44772 10 4 10H15C15.5523 10 16 9.55228 16 9V4C16 3.44772 15.5523 3 15 3Z" stroke="black" stroke-width="1.5" stroke-linecap="round" stroke-linejoin="round"/>
<path d="M22 15L19 12L22 9" stroke="black" stroke-width="1.5" stroke-linecap="round" stroke-linejoin="round"/>
<path d="M15 14H4C3.44772 14 3 14.4477 3 15V20C3 20.5523 3.44772 21 4 21H15C15.5523 21 16 20.5523 16 20V15C16 14.4477 15.5523 14 15 14Z" stroke="black" stroke-width="1.5" stroke-linecap="round" stroke-linejoin="round"/>
</svg>
