<svg width="20" height="20" viewBox="0 0 20 20" fill="none" xmlns="http://www.w3.org/2000/svg">
<g clip-path="url(#clip0_14_168)">
<path d="M13.35 10L17.9167 12.6083C18.0449 12.681 18.1516 12.7864 18.2258 12.9138C18.3 13.0411 18.3391 13.1859 18.3391 13.3333C18.3391 13.4807 18.3 13.6255 18.2258 13.7529C18.1516 13.8803 18.0449 13.9857 17.9167 14.0583L10.8333 18.1167C10.58 18.2629 10.2926 18.34 10 18.34C9.70745 18.34 9.42004 18.2629 9.16668 18.1167L2.08335 14.0583C1.9551 13.9857 1.84842 13.8803 1.77421 13.7529C1.69999 13.6255 1.66089 13.4807 1.66089 13.3333C1.66089 13.1859 1.69999 13.0411 1.77421 12.9138C1.84842 12.7864 1.9551 12.681 2.08335 12.6083L6.65001 10" stroke="black" stroke-width="1.66667" stroke-linecap="round" stroke-linejoin="round"/>
<path d="M10.8333 11.45C10.58 11.5963 10.2926 11.6733 10 11.6733C9.70745 11.6733 9.42004 11.5963 9.16668 11.45L2.08335 7.39167C1.9551 7.31898 1.84842 7.21358 1.77421 7.08622C1.69999 6.95885 1.66089 6.81408 1.66089 6.66667C1.66089 6.51925 1.69999 6.37448 1.77421 6.24711C1.84842 6.11975 1.9551 6.01435 2.08335 5.94167L9.16668 1.88333C9.42004 1.73705 9.70745 1.66004 10 1.66004C10.2926 1.66004 10.58 1.73705 10.8333 1.88333L17.9167 5.94167C18.0449 6.01435 18.1516 6.11975 18.2258 6.24711C18.3 6.37448 18.3391 6.51925 18.3391 6.66667C18.3391 6.81408 18.3 6.95885 18.2258 7.08622C18.1516 7.21358 18.0449 7.31898 17.9167 7.39167L10.8333 11.45Z" stroke="black" stroke-width="1.66667" stroke-linecap="round" stroke-linejoin="round"/>
</g>
<defs>
<clipPath id="clip0_14_168">
<rect width="20" height="20" fill="white"/>
</clipPath>
</defs>
</svg>
