<svg width="20" height="20" viewBox="0 0 20 20" fill="none" xmlns="http://www.w3.org/2000/svg">
<path d="M15 17.5C15 15.7319 14.2976 14.0362 13.0474 12.7859C11.7972 11.5357 10.1015 10.8333 8.33335 10.8333C6.56524 10.8333 4.86955 11.5357 3.61931 12.7859C2.36907 14.0362 1.66669 15.7319 1.66669 17.5" stroke="black" stroke-width="1.66667" stroke-linecap="round" stroke-linejoin="round"/>
<path d="M8.33335 10.8333C10.6345 10.8333 12.5 8.96785 12.5 6.66667C12.5 4.36548 10.6345 2.5 8.33335 2.5C6.03217 2.5 4.16669 4.36548 4.16669 6.66667C4.16669 8.96785 6.03217 10.8333 8.33335 10.8333Z" stroke="black" stroke-width="1.66667" stroke-linecap="round" stroke-linejoin="round"/>
<path d="M18.3333 16.6667C18.3333 13.8583 16.6667 11.25 15 9.99999C15.5478 9.58897 15.9859 9.04923 16.2755 8.42855C16.565 7.80787 16.6971 7.12539 16.66 6.4415C16.6229 5.75761 16.4178 5.0934 16.0629 4.50766C15.7079 3.92192 15.2141 3.43271 14.625 3.08333" stroke="black" stroke-width="1.66667" stroke-linecap="round" stroke-linejoin="round"/>
</svg>
